<?xml version="1.0" standalone="no"?>
<!DOCTYPE svg PUBLIC "-//W3C//DTD SVG 20010904//EN"
 "http://www.w3.org/TR/2001/REC-SVG-20010904/DTD/svg10.dtd">
<svg version="1.0" xmlns="http://www.w3.org/2000/svg"
 width="128.000000pt" height="128.000000pt" viewBox="0 0 128.000000 128.000000"
 preserveAspectRatio="xMidYMid meet">
<metadata>
Created by potrace 1.16, written by Peter Selinger 2001-2019
</metadata>
<g transform="translate(0.000000,128.000000) scale(0.100000,-0.100000)"
fill="#000000" stroke="none">
<path d="M631 627 c-2 -66 -54 -135 -126 -168 -27 -13 -64 -19 -115 -19 -166
-1 -301 -71 -360 -187 -20 -39 -26 -66 -28 -145 l-4 -98 49 6 c240 32 377 120
537 347 26 37 50 67 54 67 4 0 34 -39 67 -86 140 -201 293 -296 528 -329 l47
-6 0 75 c0 126 -43 216 -136 282 -65 46 -132 66 -249 74 -150 9 -219 55 -250
166 -10 38 -13 43 -14 21z"/>
<path d="M587 276 c-65 -89 -173 -186 -254 -229 l-68 -36 375 0 375 -1 -59 31
c-114 59 -233 168 -292 268 -10 17 -21 31 -24 31 -3 0 -27 -29 -53 -64z"/>
</g>
</svg>
